{
    "asset" : {
        "generator" : "Khronos glTF Blender I/O v1.6.16",
        "version" : "2.0"
    },
    "scene" : 0,
    "scenes" : [
        {
            "name" : "Scene",
            "nodes" : [
                0,
                1,
                2,
                3,
                4,
                5,
                6,
                7
            ]
        }
    ],
    "nodes" : [
        {
            "mesh" : 0,
            "name" : "set_0_group_0.001"
        },
        {
            "mesh" : 1,
            "name" : "set_0_group_1"
        },
        {
            "mesh" : 2,
            "name" : "set_0_group_0.002",
            "translation" : [
                0,
                0.5656750202178955,
                0
            ]
        },
        {
            "mesh" : 3,
            "name" : "set_0_group_0.003",
            "translation" : [
                0.0339413620531559,
                0.8354523777961731,
                -1.1599812507629395
            ]
        },
        {
            "mesh" : 4,
            "name" : "set_0_group_0.004",
            "translation" : [
                1.2809391021728516,
                -0.41871699690818787,
                -0.04161306843161583
            ]
        },
        {
            "mesh" : 5,
            "name" : "set_1_group_0",
            "translation" : [
                -0.013962393626570702,
                -0.9668013453483582,
                0
            ]
        },
        {
            "mesh" : 6,
            "name" : "set_2_group_0",
            "translation" : [
                1.2971107959747314,
                -0.27919694781303406,
                -0.0189370010048151
            ]
        },
        {
            "mesh" : 7,
            "name" : "set_3_group_0",
            "translation" : [
                -0.013962393626570702,
                -0.9668013453483582,
                0
            ]
        }
    ],
    "materials" : [
        {
            "doubleSided" : true,
            "name" : "set_0_group_0.001",
            "pbrMetallicRoughness" : {
                "metallicFactor" : 0
            }
        },
        {
            "doubleSided" : true,
            "name" : "set_0_group_1",
            "pbrMetallicRoughness" : {
                "metallicFactor" : 0
            }
        },
        {
            "doubleSided" : true,
            "name" : "set_0_group_0.002",
            "pbrMetallicRoughness" : {
                "metallicFactor" : 0
            }
        },
        {
            "doubleSided" : true,
            "name" : "Default OBJ",
            "pbrMetallicRoughness" : {
                "metallicFactor" : 0,
                "roughnessFactor" : 0.5
            }
        },
        {
            "doubleSided" : true,
            "name" : "set_0_group_0.003",
            "pbrMetallicRoughness" : {
                "metallicFactor" : 0
            }
        },
        {
            "doubleSided" : true,
            "name" : "set_1_group_0",
            "pbrMetallicRoughness" : {
                "metallicFactor" : 0
            }
        },
        {
            "doubleSided" : true,
            "name" : "set_2_group_0",
            "pbrMetallicRoughness" : {
                "metallicFactor" : 0
            }
        },
        {
            "doubleSided" : true,
            "name" : "set_3_group_0",
            "pbrMetallicRoughness" : {
                "metallicFactor" : 0
            }
        }
    ],
    "meshes" : [
        {
            "name" : "set_0_group_0.001",
            "primitives" : [
                {
                    "attributes" : {
                        "POSITION" : 0,
                        "NORMAL" : 1,
                        "TEXCOORD_0" : 2
                    },
                    "indices" : 3,
                    "material" : 0
                }
            ]
        },
        {
            "name" : "set_0_group_1",
            "primitives" : [
                {
                    "attributes" : {
                        "POSITION" : 4,
                        "NORMAL" : 5,
                        "TEXCOORD_0" : 6
                    },
                    "indices" : 7,
                    "material" : 1
                }
            ]
        },
        {
            "name" : "set_0_group_0.002",
            "primitives" : [
                {
                    "attributes" : {
                        "POSITION" : 8,
                        "NORMAL" : 9,
                        "TEXCOORD_0" : 10
                    },
                    "indices" : 11,
                    "material" : 2
                }
            ]
        },
        {
            "name" : "set_0_group_0.003",
            "primitives" : [
                {
                    "attributes" : {
                        "POSITION" : 12,
                        "NORMAL" : 13,
                        "TEXCOORD_0" : 14
                    },
                    "indices" : 15,
                    "material" : 3
                }
            ]
        },
        {
            "name" : "set_0_group_0.004",
            "primitives" : [
                {
                    "attributes" : {
                        "POSITION" : 16,
                        "NORMAL" : 17,
                        "TEXCOORD_0" : 18
                    },
                    "indices" : 19,
                    "material" : 4
                }
            ]
        },
        {
            "name" : "set_1_group_0",
            "primitives" : [
                {
                    "attributes" : {
                        "POSITION" : 20,
                        "NORMAL" : 21,
                        "TEXCOORD_0" : 22
                    },
                    "indices" : 23,
                    "material" : 5
                }
            ]
        },
        {
            "name" : "set_2_group_0",
            "primitives" : [
                {
                    "attributes" : {
                        "POSITION" : 24,
                        "NORMAL" : 25,
                        "TEXCOORD_0" : 26
                    },
                    "indices" : 27,
                    "material" : 6
                }
            ]
        },
        {
            "name" : "set_3_group_0",
            "primitives" : [
                {
                    "attributes" : {
                        "POSITION" : 28,
                        "NORMAL" : 29,
                        "TEXCOORD_0" : 30
                    },
                    "indices" : 31,
                    "material" : 7
                }
            ]
        }
    ],
    "accessors" : [
        {
            "bufferView" : 0,
            "componentType" : 5126,
            "count" : 200,
            "max" : [
                0.9826200008392334,
                0.4733000099658966,
                2.8131489753723145
            ],
            "min" : [
                -0.9826200008392334,
                -0.3840450048446655,
                -2.5438220500946045
            ],
            "type" : "VEC3"
        },
        {
            "bufferView" : 1,
            "componentType" : 5126,
            "count" : 200,
            "type" : "VEC3"
        },
        {
            "bufferView" : 2,
            "componentType" : 5126,
            "count" : 200,
            "type" : "VEC2"
        },
        {
            "bufferView" : 3,
            "componentType" : 5123,
            "count" : 432,
            "type" : "SCALAR"
        },
        {
            "bufferView" : 4,
            "componentType" : 5126,
            "count" : 3867,
            "max" : [
                1.6337159872055054,
                0.6301800012588501,
                3.289634943008423
            ],
            "min" : [
                -1.6424429416656494,
                -0.584568977355957,
                -2.9458560943603516
            ],
            "type" : "VEC3"
        },
        {
            "bufferView" : 5,
            "componentType" : 5126,
            "count" : 3867,
            "type" : "VEC3"
        },
        {
            "bufferView" : 6,
            "componentType" : 5126,
            "count" : 3867,
            "type" : "VEC2"
        },
        {
            "bufferView" : 7,
            "componentType" : 5123,
            "count" : 7563,
            "type" : "SCALAR"
        },
        {
            "bufferView" : 8,
            "componentType" : 5126,
            "count" : 3091,
            "max" : [
                1.2733540534973145,
                1.383057951927185,
                1.600527048110962
            ],
            "min" : [
                -1.269361972808838,
                -0.017309000715613365,
                -1.3817369937896729
            ],
            "type" : "VEC3"
        },
        {
            "bufferView" : 9,
            "componentType" : 5126,
            "count" : 3091,
            "type" : "VEC3"
        },
        {
            "bufferView" : 10,
            "componentType" : 5126,
            "count" : 3091,
            "type" : "VEC2"
        },
        {
            "bufferView" : 11,
            "componentType" : 5123,
            "count" : 7188,
            "type" : "SCALAR"
        },
        {
            "bufferView" : 12,
            "componentType" : 5126,
            "count" : 304,
            "max" : [
                0.23496399819850922,
                0.3374980092048645,
                0.18757100403308868
            ],
            "min" : [
                -0.23496399819850922,
                -0.19994699954986572,
                -4.266819953918457
            ],
            "type" : "VEC3"
        },
        {
            "bufferView" : 13,
            "componentType" : 5126,
            "count" : 304,
            "type" : "VEC3"
        },
        {
            "bufferView" : 14,
            "componentType" : 5126,
            "count" : 304,
            "type" : "VEC2"
        },
        {
            "bufferView" : 15,
            "componentType" : 5123,
            "count" : 789,
            "type" : "SCALAR"
        },
        {
            "bufferView" : 16,
            "componentType" : 5126,
            "count" : 5367,
            "max" : [
                0.266277551651001,
                0.5438315868377686,
                2.943847179412842
            ],
            "min" : [
                -0.3201735019683838,
                -0.4949253797531128,
                -2.895002841949463
            ],
            "type" : "VEC3"
        },
        {
            "bufferView" : 17,
            "componentType" : 5126,
            "count" : 5367,
            "type" : "VEC3"
        },
        {
            "bufferView" : 18,
            "componentType" : 5126,
            "count" : 5367,
            "type" : "VEC2"
        },
        {
            "bufferView" : 19,
            "componentType" : 5123,
            "count" : 12939,
            "type" : "SCALAR"
        },
        {
            "bufferView" : 20,
            "componentType" : 5126,
            "count" : 5371,
            "max" : [
                -0.974727988243103,
                1.0919159650802612,
                2.9022340774536133
            ],
            "min" : [
                -1.5639450550079346,
                0.05315899848937988,
                -2.9366159439086914
            ],
            "type" : "VEC3"
        },
        {
            "bufferView" : 21,
            "componentType" : 5126,
            "count" : 5371,
            "type" : "VEC3"
        },
        {
            "bufferView" : 22,
            "componentType" : 5126,
            "count" : 5371,
            "type" : "VEC2"
        },
        {
            "bufferView" : 23,
            "componentType" : 5123,
            "count" : 12939,
            "type" : "SCALAR"
        },
        {
            "bufferView" : 24,
            "componentType" : 5126,
            "count" : 876,
            "max" : [
                0.28837287425994873,
                0.44927656650543213,
                2.901726007461548
            ],
            "min" : [
                -0.28875112533569336,
                -0.6832404136657715,
                -2.9633188247680664
            ],
            "type" : "VEC3"
        },
        {
            "bufferView" : 25,
            "componentType" : 5126,
            "count" : 876,
            "type" : "VEC3"
        },
        {
            "bufferView" : 26,
            "componentType" : 5126,
            "count" : 876,
            "type" : "VEC2"
        },
        {
            "bufferView" : 27,
            "componentType" : 5123,
            "count" : 2592,
            "type" : "SCALAR"
        },
        {
            "bufferView" : 28,
            "componentType" : 5126,
            "count" : 883,
            "max" : [
                -1.0232080221176147,
                1.137091040611267,
                2.8793818950653076
            ],
            "min" : [
                -1.600411057472229,
                0.004364000167697668,
                -2.979029893875122
            ],
            "type" : "VEC3"
        },
        {
            "bufferView" : 29,
            "componentType" : 5126,
            "count" : 883,
            "type" : "VEC3"
        },
        {
            "bufferView" : 30,
            "componentType" : 5126,
            "count" : 883,
            "type" : "VEC2"
        },
        {
            "bufferView" : 31,
            "componentType" : 5123,
            "count" : 2592,
            "type" : "SCALAR"
        }
    ],
    "bufferViews" : [
        {
            "buffer" : 0,
            "byteLength" : 2400,
            "byteOffset" : 0
        },
        {
            "buffer" : 0,
            "byteLength" : 2400,
            "byteOffset" : 2400
        },
        {
            "buffer" : 0,
            "byteLength" : 1600,
            "byteOffset" : 4800
        },
        {
            "buffer" : 0,
            "byteLength" : 864,
            "byteOffset" : 6400
        },
        {
            "buffer" : 0,
            "byteLength" : 46404,
            "byteOffset" : 7264
        },
        {
            "buffer" : 0,
            "byteLength" : 46404,
            "byteOffset" : 53668
        },
        {
            "buffer" : 0,
            "byteLength" : 30936,
            "byteOffset" : 100072
        },
        {
            "buffer" : 0,
            "byteLength" : 15126,
            "byteOffset" : 131008
        },
        {
            "buffer" : 0,
            "byteLength" : 37092,
            "byteOffset" : 146136
        },
        {
            "buffer" : 0,
            "byteLength" : 37092,
            "byteOffset" : 183228
        },
        {
            "buffer" : 0,
            "byteLength" : 24728,
            "byteOffset" : 220320
        },
        {
            "buffer" : 0,
            "byteLength" : 14376,
            "byteOffset" : 245048
        },
        {
            "buffer" : 0,
            "byteLength" : 3648,
            "byteOffset" : 259424
        },
        {
            "buffer" : 0,
            "byteLength" : 3648,
            "byteOffset" : 263072
        },
        {
            "buffer" : 0,
            "byteLength" : 2432,
            "byteOffset" : 266720
        },
        {
            "buffer" : 0,
            "byteLength" : 1578,
            "byteOffset" : 269152
        },
        {
            "buffer" : 0,
            "byteLength" : 64404,
            "byteOffset" : 270732
        },
        {
            "buffer" : 0,
            "byteLength" : 64404,
            "byteOffset" : 335136
        },
        {
            "buffer" : 0,
            "byteLength" : 42936,
            "byteOffset" : 399540
        },
        {
            "buffer" : 0,
            "byteLength" : 25878,
            "byteOffset" : 442476
        },
        {
            "buffer" : 0,
            "byteLength" : 64452,
            "byteOffset" : 468356
        },
        {
            "buffer" : 0,
            "byteLength" : 64452,
            "byteOffset" : 532808
        },
        {
            "buffer" : 0,
            "byteLength" : 42968,
            "byteOffset" : 597260
        },
        {
            "buffer" : 0,
            "byteLength" : 25878,
            "byteOffset" : 640228
        },
        {
            "buffer" : 0,
            "byteLength" : 10512,
            "byteOffset" : 666108
        },
        {
            "buffer" : 0,
            "byteLength" : 10512,
            "byteOffset" : 676620
        },
        {
            "buffer" : 0,
            "byteLength" : 7008,
            "byteOffset" : 687132
        },
        {
            "buffer" : 0,
            "byteLength" : 5184,
            "byteOffset" : 694140
        },
        {
            "buffer" : 0,
            "byteLength" : 10596,
            "byteOffset" : 699324
        },
        {
            "buffer" : 0,
            "byteLength" : 10596,
            "byteOffset" : 709920
        },
        {
            "buffer" : 0,
            "byteLength" : 7064,
            "byteOffset" : 720516
        },
        {
            "buffer" : 0,
            "byteLength" : 5184,
            "byteOffset" : 727580
        }
    ],
    "buffers" : [
        {
            "byteLength" : 732764,
            "uri" : "tank.bin"
        }
    ]
}
