{
    "asset" : {
        "generator" : "Khronos glTF Blender I/O v1.6.16",
        "version" : "2.0"
    },
    "scene" : 0,
    "scenes" : [
        {
            "name" : "Scene",
            "nodes" : [
                0,
                1,
                2,
                3,
                4,
                5
            ]
        }
    ],
    "nodes" : [
        {
            "mesh" : 0,
            "name" : "set_0_group_0"
        },
        {
            "mesh" : 1,
            "name" : "set_0_group_0.001",
            "translation" : [
                0.031293995678424835,
                0.7940754890441895,
                -1.1964119672775269
            ]
        },
        {
            "mesh" : 2,
            "name" : "set_0_group_0.002",
            "translation" : [
                0,
                0.5188720226287842,
                0
            ]
        },
        {
            "mesh" : 3,
            "name" : "set_0_group_0.003",
            "translation" : [
                0,
                -0.9619759917259216,
                0
            ]
        },
        {
            "mesh" : 4,
            "name" : "set_1_group_0",
            "translation" : [
                0,
                -0.9619764685630798,
                0
            ]
        },
        {
            "mesh" : 5,
            "name" : "set_0_group_0.006",
            "rotation" : [
                0,
                -0.7071068286895752,
                0,
                0.7071068286895752
            ],
            "translation" : [
                -1.3129899501800537,
                -0.35627514123916626,
                -0.05760044604539871
            ]
        }
    ],
    "materials" : [
        {
            "doubleSided" : true,
            "name" : "set_0_group_0",
            "normalTexture" : {
                "index" : 0
            },
            "pbrMetallicRoughness" : {
                "baseColorTexture" : {
                    "index" : 1
                },
                "metallicFactor" : 0
            }
        },
        {
            "doubleSided" : true,
            "name" : "set_0_group_0.001",
            "normalTexture" : {
                "index" : 2
            },
            "pbrMetallicRoughness" : {
                "baseColorTexture" : {
                    "index" : 3
                },
                "metallicFactor" : 0
            }
        },
        {
            "doubleSided" : true,
            "name" : "set_0_group_0.002",
            "normalTexture" : {
                "index" : 4
            },
            "pbrMetallicRoughness" : {
                "baseColorTexture" : {
                    "index" : 5
                },
                "metallicFactor" : 0
            }
        },
        {
            "doubleSided" : true,
            "name" : "set_0_group_0.003",
            "normalTexture" : {
                "index" : 6
            },
            "pbrMetallicRoughness" : {
                "baseColorTexture" : {
                    "index" : 7
                },
                "metallicFactor" : 0
            }
        },
        {
            "doubleSided" : true,
            "name" : "set_1_group_0",
            "normalTexture" : {
                "index" : 8
            },
            "pbrMetallicRoughness" : {
                "baseColorTexture" : {
                    "index" : 9
                },
                "metallicFactor" : 0
            }
        },
        {
            "doubleSided" : true,
            "name" : "set_0_group_0.007",
            "pbrMetallicRoughness" : {
                "baseColorTexture" : {
                    "index" : 10
                },
                "metallicFactor" : 0
            }
        }
    ],
    "meshes" : [
        {
            "name" : "set_0_group_0",
            "primitives" : [
                {
                    "attributes" : {
                        "POSITION" : 0,
                        "NORMAL" : 1,
                        "TEXCOORD_0" : 2
                    },
                    "indices" : 3,
                    "material" : 0
                }
            ]
        },
        {
            "name" : "set_0_group_0.001",
            "primitives" : [
                {
                    "attributes" : {
                        "POSITION" : 4,
                        "NORMAL" : 5,
                        "TEXCOORD_0" : 6
                    },
                    "indices" : 7,
                    "material" : 1
                }
            ]
        },
        {
            "name" : "set_0_group_0.002",
            "primitives" : [
                {
                    "attributes" : {
                        "POSITION" : 8,
                        "NORMAL" : 9,
                        "TEXCOORD_0" : 10
                    },
                    "indices" : 11,
                    "material" : 2
                }
            ]
        },
        {
            "name" : "set_0_group_0.003",
            "primitives" : [
                {
                    "attributes" : {
                        "POSITION" : 12,
                        "NORMAL" : 13,
                        "TEXCOORD_0" : 14
                    },
                    "indices" : 15,
                    "material" : 3
                }
            ]
        },
        {
            "name" : "set_1_group_0",
            "primitives" : [
                {
                    "attributes" : {
                        "POSITION" : 16,
                        "NORMAL" : 17,
                        "TEXCOORD_0" : 18
                    },
                    "indices" : 19,
                    "material" : 4
                }
            ]
        },
        {
            "name" : "set_0_group_0.007",
            "primitives" : [
                {
                    "attributes" : {
                        "POSITION" : 20,
                        "NORMAL" : 21,
                        "TEXCOORD_0" : 22
                    },
                    "indices" : 23,
                    "material" : 5
                }
            ]
        }
    ],
    "textures" : [
        {
            "sampler" : 0,
            "source" : 0
        },
        {
            "sampler" : 0,
            "source" : 1
        },
        {
            "sampler" : 0,
            "source" : 2
        },
        {
            "sampler" : 0,
            "source" : 3
        },
        {
            "sampler" : 0,
            "source" : 4
        },
        {
            "sampler" : 0,
            "source" : 5
        },
        {
            "sampler" : 0,
            "source" : 6
        },
        {
            "sampler" : 0,
            "source" : 7
        },
        {
            "sampler" : 0,
            "source" : 6
        },
        {
            "sampler" : 0,
            "source" : 7
        },
        {
            "sampler" : 0,
            "source" : 8
        }
    ],
    "images" : [
        {
            "mimeType" : "image/jpeg",
            "name" : "Type59_hull_01_ANM",
            "uri" : "Type59_hull_01_ANM.jpg"
        },
        {
            "mimeType" : "image/jpeg",
            "name" : "Type59_hull_01_AM",
            "uri" : "Type59_hull_01_AM.jpg"
        },
        {
            "mimeType" : "image/jpeg",
            "name" : "Type59_guns_ANM",
            "uri" : "Type59_guns_ANM.jpg"
        },
        {
            "mimeType" : "image/jpeg",
            "name" : "Type59_guns_AM.dds",
            "uri" : "Type59_guns_AM_dds.jpg"
        },
        {
            "mimeType" : "image/jpeg",
            "name" : "Type59_turret_01_ANM",
            "uri" : "Type59_turret_01_ANM.jpg"
        },
        {
            "mimeType" : "image/jpeg",
            "name" : "Type59_turret_01_AM.dds",
            "uri" : "Type59_turret_01_AM_dds.jpg"
        },
        {
            "mimeType" : "image/jpeg",
            "name" : "Type59_chassis_01_ANM",
            "uri" : "Type59_chassis_01_ANM.jpg"
        },
        {
            "mimeType" : "image/jpeg",
            "name" : "Type59_chassis_01_AM.dds",
            "uri" : "Type59_chassis_01_AM_dds.jpg"
        },
        {
            "mimeType" : "image/jpeg",
            "name" : "T-54_1949_segment_track_AM",
            "uri" : "T-54_1949_segment_track_AM.jpg"
        }
    ],
    "accessors" : [
        {
            "bufferView" : 0,
            "componentType" : 5126,
            "count" : 20023,
            "max" : [
                1.647994041442871,
                0.5961319804191589,
                3.4877169132232666
            ],
            "min" : [
                -1.644752025604248,
                -0.5966349840164185,
                -3.1463100910186768
            ],
            "type" : "VEC3"
        },
        {
            "bufferView" : 1,
            "componentType" : 5126,
            "count" : 20023,
            "type" : "VEC3"
        },
        {
            "bufferView" : 2,
            "componentType" : 5126,
            "count" : 20023,
            "type" : "VEC2"
        },
        {
            "bufferView" : 3,
            "componentType" : 5123,
            "count" : 55095,
            "type" : "SCALAR"
        },
        {
            "bufferView" : 4,
            "componentType" : 5126,
            "count" : 1374,
            "max" : [
                0.23513999581336975,
                0.3412579894065857,
                0.17203399538993835
            ],
            "min" : [
                -0.23513999581336975,
                -0.19945499300956726,
                -4.266769886016846
            ],
            "type" : "VEC3"
        },
        {
            "bufferView" : 5,
            "componentType" : 5126,
            "count" : 1374,
            "type" : "VEC3"
        },
        {
            "bufferView" : 6,
            "componentType" : 5126,
            "count" : 1374,
            "type" : "VEC2"
        },
        {
            "bufferView" : 7,
            "componentType" : 5123,
            "count" : 4170,
            "type" : "SCALAR"
        },
        {
            "bufferView" : 8,
            "componentType" : 5126,
            "count" : 9615,
            "max" : [
                1.2848540544509888,
                1.380911946296692,
                1.6090480089187622
            ],
            "min" : [
                -1.2807660102844238,
                5.900000178371556e-05,
                -1.4123940467834473
            ],
            "type" : "VEC3"
        },
        {
            "bufferView" : 9,
            "componentType" : 5126,
            "count" : 9615,
            "type" : "VEC3"
        },
        {
            "bufferView" : 10,
            "componentType" : 5126,
            "count" : 9615,
            "type" : "VEC2"
        },
        {
            "bufferView" : 11,
            "componentType" : 5123,
            "count" : 28407,
            "type" : "SCALAR"
        },
        {
            "bufferView" : 12,
            "componentType" : 5126,
            "count" : 9074,
            "max" : [
                1.5611790418624878,
                1.0919480323791504,
                2.910820960998535
            ],
            "min" : [
                0.974727988243103,
                0.048204999417066574,
                -2.9362480640411377
            ],
            "type" : "VEC3"
        },
        {
            "bufferView" : 13,
            "componentType" : 5126,
            "count" : 9074,
            "type" : "VEC3"
        },
        {
            "bufferView" : 14,
            "componentType" : 5126,
            "count" : 9074,
            "type" : "VEC2"
        },
        {
            "bufferView" : 15,
            "componentType" : 5123,
            "count" : 25083,
            "type" : "SCALAR"
        },
        {
            "bufferView" : 16,
            "componentType" : 5126,
            "count" : 9071,
            "max" : [
                -0.974727988243103,
                1.0919480323791504,
                2.910820960998535
            ],
            "min" : [
                -1.5639450550079346,
                0.048204999417066574,
                -2.9362480640411377
            ],
            "type" : "VEC3"
        },
        {
            "bufferView" : 17,
            "componentType" : 5126,
            "count" : 9071,
            "type" : "VEC3"
        },
        {
            "bufferView" : 18,
            "componentType" : 5126,
            "count" : 9071,
            "type" : "VEC2"
        },
        {
            "bufferView" : 19,
            "componentType" : 5123,
            "count" : 25083,
            "type" : "SCALAR"
        },
        {
            "bufferView" : 20,
            "componentType" : 5126,
            "count" : 19312,
            "max" : [
                2.941582441329956,
                0.5540269017219543,
                0.2853517532348633
            ],
            "min" : [
                -2.9196393489837646,
                -0.601388692855835,
                -2.9113316535949707
            ],
            "type" : "VEC3"
        },
        {
            "bufferView" : 21,
            "componentType" : 5126,
            "count" : 19312,
            "type" : "VEC3"
        },
        {
            "bufferView" : 22,
            "componentType" : 5126,
            "count" : 19312,
            "type" : "VEC2"
        },
        {
            "bufferView" : 23,
            "componentType" : 5123,
            "count" : 45156,
            "type" : "SCALAR"
        }
    ],
    "bufferViews" : [
        {
            "buffer" : 0,
            "byteLength" : 240276,
            "byteOffset" : 0
        },
        {
            "buffer" : 0,
            "byteLength" : 240276,
            "byteOffset" : 240276
        },
        {
            "buffer" : 0,
            "byteLength" : 160184,
            "byteOffset" : 480552
        },
        {
            "buffer" : 0,
            "byteLength" : 110190,
            "byteOffset" : 640736
        },
        {
            "buffer" : 0,
            "byteLength" : 16488,
            "byteOffset" : 750928
        },
        {
            "buffer" : 0,
            "byteLength" : 16488,
            "byteOffset" : 767416
        },
        {
            "buffer" : 0,
            "byteLength" : 10992,
            "byteOffset" : 783904
        },
        {
            "buffer" : 0,
            "byteLength" : 8340,
            "byteOffset" : 794896
        },
        {
            "buffer" : 0,
            "byteLength" : 115380,
            "byteOffset" : 803236
        },
        {
            "buffer" : 0,
            "byteLength" : 115380,
            "byteOffset" : 918616
        },
        {
            "buffer" : 0,
            "byteLength" : 76920,
            "byteOffset" : 1033996
        },
        {
            "buffer" : 0,
            "byteLength" : 56814,
            "byteOffset" : 1110916
        },
        {
            "buffer" : 0,
            "byteLength" : 108888,
            "byteOffset" : 1167732
        },
        {
            "buffer" : 0,
            "byteLength" : 108888,
            "byteOffset" : 1276620
        },
        {
            "buffer" : 0,
            "byteLength" : 72592,
            "byteOffset" : 1385508
        },
        {
            "buffer" : 0,
            "byteLength" : 50166,
            "byteOffset" : 1458100
        },
        {
            "buffer" : 0,
            "byteLength" : 108852,
            "byteOffset" : 1508268
        },
        {
            "buffer" : 0,
            "byteLength" : 108852,
            "byteOffset" : 1617120
        },
        {
            "buffer" : 0,
            "byteLength" : 72568,
            "byteOffset" : 1725972
        },
        {
            "buffer" : 0,
            "byteLength" : 50166,
            "byteOffset" : 1798540
        },
        {
            "buffer" : 0,
            "byteLength" : 231744,
            "byteOffset" : 1848708
        },
        {
            "buffer" : 0,
            "byteLength" : 231744,
            "byteOffset" : 2080452
        },
        {
            "buffer" : 0,
            "byteLength" : 154496,
            "byteOffset" : 2312196
        },
        {
            "buffer" : 0,
            "byteLength" : 90312,
            "byteOffset" : 2466692
        }
    ],
    "samplers" : [
        {
            "magFilter" : 9729,
            "minFilter" : 9987
        }
    ],
    "buffers" : [
        {
            "byteLength" : 2557004,
            "uri" : "tank.bin"
        }
    ]
}
